/* XPM */
static char * nftp[] = {
/* width height ncolors chars_per_pixel */
"64 64 8 1",
/* colors */
"  c #CCCCCC",
"! c #404040",
"# c #0000FF",
"$ c #783400",
"% c #C0C0C0",
"& c #FFFFFF",
"' c #FF0000",
"( c #008080",
/* pixels */
"                                                                ",
"                                                                ",
"                                                                ",
"                                                                ",
"  ####        ####  ############  ############  ##########      ",
"  ####        ####  ############  ############  ##########      ",
"  ######      ####  ####              ####      ####      ####  ",
"  ######      ####  ####              ####      ####      ####  ",
"  ########    ####  ####              ####      ####      ####  ",
"  ########    ####  ####              ####      ####      ####  ",
"  ####  ####  ####  ####              ####      ####      ####  ",
"  ####  ####  ####  ####              ####      ####      ####  ",
"  ####    ########  ##########        ####      ####      ####  ",
"  ####    ########  ##########        ####      ####      ####  ",
"  ####      ######  ####              ####      ##########      ",
"  ####      ######  ####              ####      ##########      ",
"  ####        ####  ####              ####      ####            ",
"  ####        ####  ####              ####      ####            ",
"  ####        ####  ####              ####      ####            ",
"  ####        ####  ####              ####      ####            ",
"                                                                ",
"                                                                ",
"                                                                ",
"                                                                ",
"    ''  ''  ''  ''  ''  ''  ''  ''  ''  ''  ''  ''  ''  ''  ''  ",
"    ''  ''  ''  ''  ''  ''  ''  ''  ''  ''  ''  ''  ''  ''  ''  ",
"  ''  ''  ''  ''  ''  ''  ''  ''  ''  ''  ''  ''  ''  ''  ''    ",
"  ''  ''  ''  ''  ''  ''  ''  ''  ''  ''  ''  ''  ''  ''  ''    ",
"                                                                ",
"                                                                ",
"      !!!!!!!!!!!!!!                      !!!!!!!!!!!!!!        ",
"      !!!!!!!!!!!!!!                      !!!!!!!!!!!!!!        ",
"    !!%%%%%%%%%%%%%%!!                  !!%%%%%%%%%%%%%%!!      ",
"    !!%%%%%%%%%%%%%%!!                  !!%%%%%%%%%%%%%%!!      ",
"    !!%%((&&((&&((%%!!$$                !!%%((&&((&&((%%!!$$    ",
"    !!%%((&&((&&((%%!!$$                !!%%((&&((&&((%%!!$$    ",
"    !!%%&&((&&((&&%%!!$$                !!%%&&((&&((&&%%!!$$    ",
"    !!%%&&((&&((&&%%!!$$                !!%%&&((&&((&&%%!!$$    ",
"    !!%%((&&((&&((%%!!$$                !!%%((&&((&&((%%!!$$    ",
"    !!%%((&&((&&((%%!!$$                !!%%((&&((&&((%%!!$$    ",
"    !!%%&&((&&((&&%%!!$$                !!%%&&((&&((&&%%!!$$    ",
"    !!%%&&((&&((&&%%!!$$                !!%%&&((&&((&&%%!!$$    ",
"    !!%%%%%%%%%%%%%%!!$$                !!%%%%%%%%%%%%%%!!$$    ",
"    !!%%%%%%%%%%%%%%!!$$                !!%%%%%%%%%%%%%%!!$$    ",
"      !!!!!!!!!!!!!!$$$$                  !!!!!!!!!!!!!!$$$$    ",
"      !!!!!!!!!!!!!!$$$$                  !!!!!!!!!!!!!!$$$$    ",
"        $$$$$$$$$$$$$$                      $$$$$$$$$$$$$$      ",
"        $$$$$$$$$$$$$$                      $$$$$$$$$$$$$$      ",
"  !!!!!!!!!!!!!!!!!!!!!!              !!!!!!!!!!!!!!!!!!!!!!    ",
"  !!!!!!!!!!!!!!!!!!!!!!              !!!!!!!!!!!!!!!!!!!!!!    ",
"  !!&&&&&&&&&&&&&&&&&&!!$$            !!&&&&&&&&&&&&&&&&&&!!$$  ",
"  !!&&&&&&&&&&&&&&&&&&!!$$            !!&&&&&&&&&&&&&&&&&&!!$$  ",
"  !!!!&&!!&&!!&&!!&&!!!!$$            !!!!&&!!&&!!&&!!&&!!!!$$  ",
"  !!!!&&!!&&!!&&!!&&!!!!$$            !!!!&&!!&&!!&&!!&&!!!!$$  ",
"  !!%%!!%%!!!!!!%%!!%%!!$$            !!%%!!%%!!!!!!%%!!%%!!$$  ",
"  !!%%!!%%!!!!!!%%!!%%!!$$            !!%%!!%%!!!!!!%%!!%%!!$$  ",
"  !!!!!!!!!!!!!!!!!!!!!!$$            !!!!!!!!!!!!!!!!!!!!!!$$  ",
"  !!!!!!!!!!!!!!!!!!!!!!$$            !!!!!!!!!!!!!!!!!!!!!!$$  ",
"    $$$$$$$$$$$$$$$$$$$$$$              $$$$$$$$$$$$$$$$$$$$$$  ",
"    $$$$$$$$$$$$$$$$$$$$$$              $$$$$$$$$$$$$$$$$$$$$$  ",
"                                                                ",
"                                                                ",
"                                                                ",
"                                                                "
};
